# xmcd
#
# Track frame offsets:
#	150
#	19641
#	30138
#	47090
#	58111
#	66722
#	73013
#	86091
#	93467
#
# Disc length: 1503 seconds
#
# Revision: 1
# Processed by: cddbd v1.5PL3 Copyright (c) Steve Scherf et al.
# Submitted via: CDex 1.50Beta5
#
DISCID=7705dd09
DTITLE=Bill Wells and Isobel Campbell - Ghost of Yesterday
DYEAR=1900
DGENRE=R&B
TTITLE0=All Alone
TTITLE1=Ghost of Yesterday
TTITLE2=Who Needs You
TTITLE3=Please Don't Do It In Here
TTITLE4=Preacher Boy
TTITLE5=Tell Me More and More(And Then Some)
TTITLE6=Somebody's On My Mind
TTITLE7=Tell Me More and More(And Then Some) <alternate version>
TTITLE8=All Alone <live version>
EXTD=
EXTT0=
EXTT1=
EXTT2=
EXTT3=
EXTT4=
EXTT5=
EXTT6=
EXTT7=
EXTT8=
PLAYORDER=
